<svg version="1" xmlns="http://www.w3.org/2000/svg" width="885.333" height="885.333" viewBox="0 0 664.000000 664.000000"><path d="M233 28c-1.2 2.3-1.9 4.8-1.7 5.5.3.6 4.1 3.7 8.4 6.7 17.1 12 30.4 31.8 35.9 53.6 3.1 12.2 3.5 28 .9 39.2-2.9 12.3-2.7 13.1 2.4 14.8 5.3 1.8 5.2 1.8 7.7-9.2 1.4-6.1 1.9-12 1.9-24.1-.1-14.3-.4-17.1-2.8-26C279.8 66.8 269 50 252 35.6c-4.1-3.4-9.6-7.5-12.2-9l-4.7-2.7L233 28zM410.9 29.2c-8 5.2-22.1 19.3-27.8 27.7-13.1 19.3-19.6 45.7-17.1 69.5 1 9.6 3.5 20.5 5 22 .5.5 2.8.2 5.5-.8 3.4-1.3 4.4-2.2 4.1-3.4-3.5-11.3-4.1-15.5-4.1-28.7.1-11.5.5-15.4 2.3-21.9 6.7-23.5 19.1-41.4 37.5-54.3l7.7-5.5-2.2-4.1c-1.3-2.2-2.8-4.2-3.4-4.4-.6-.2-4 1.5-7.5 3.9zM215.7 62.6l-2.2 4.6 2.5 1.6c5.6 3.5 14.9 14.1 18.3 20.9 6.7 13.3 7.6 19.9 5.5 40.3-.3 2.4 1.4 3.8 6.9 5.4 1.9.6 2.4.2 3.4-3.6 1.7-5.8 1.7-26 0-32.8-2.1-8.7-8.5-21-14.2-27.4-6-6.7-14.4-13.6-16.5-13.6-.8 0-2.4 2.1-3.7 4.6zM429.3 61.8C411.2 76.2 403 92.9 403 115.5c0 11 1 17.9 2.8 19.7 1.2 1.2 9.2-2 9.2-3.8 0-.7-.5-4.5-1.2-8.3-3-17.5 6.7-40.9 21.3-51.7 2.7-2 4.9-4.3 4.9-5.2 0-2.1-3.7-8.2-4.9-8.2-.5 0-3.1 1.7-5.8 3.8zM85 84.5c-4.6 12.1-5.2 42.6-1.2 57.7 5 18.5 13.4 33.1 27.2 46.9 8.2 8.2 19.8 16.9 22.6 16.9 1.1 0 5.4-6.7 5.4-8.4 0-.3-2.8-2.4-6.2-4.7-8.3-5.6-18-14.9-23.4-22.5-5.8-8.2-12.9-23.2-15.5-32.9-3.1-11.6-3.2-31.8-.1-43.2 1.2-4.5 2.2-8.4 2.2-8.7 0-.5-7.7-3.6-9-3.6-.6 0-1.5 1.1-2 2.5z"/><path d="M169.4 83.7C170.9 89 205 237 205 238.2c0 .8-3.7 4.4-8.2 7.9-11.1 8.5-28.7 26.2-37.6 37.7-42.9 55.6-55.4 128.9-33.3 196 6.9 20.9 17.5 41.3 31.4 60.2 8.2 11.2 29.9 33.1 41.2 41.6 37.3 28.3 82 43.4 128 43.4 24.3 0 44.6-3.3 67.9-11.1 44.9-14.9 84.1-45.1 110.3-85 8-12.3 19.2-35.4 23.7-49.1 14.1-42.8 14-91-.4-134.2-13.2-39.3-40.4-77-74.2-102.5-3.6-2.7-5.8-5.1-5.8-6.3 0-1.1 7.9-35.7 17.5-76.9S483 84.3 483 83.4c0-.9-.5-1.4-1.2-1.2-.7.3-17.8 29.9-38.1 65.9-20.2 36-37.1 65.9-37.5 66.6-.5.8-3.9.1-12.2-2.7-43.2-14.4-88.3-14.5-132.2-.4-12.4 4-14.3 4.4-15.3 3.1-.6-.8-17.7-31-38-67.1-20.8-37-37.5-65.6-38.3-65.6-.8 0-1.1.7-.8 1.7zM307 274.5c1.6.8 3.4 2.4 4 3.4.6 1.2 1 13.8 1 33.6v31.7l-2.9 2.9-2.9 2.9h-93.1l-2.8-2.4-2.8-2.4-.3-31.3c-.3-33.7 0-35.8 4.7-38.4 4-2.2 90.9-2.2 95.1 0zm136 0c1.6.8 3.4 2.4 4 3.4.6 1.2 1 13.8 1 33.6v31.7l-2.9 2.9-2.9 2.9h-93.1l-2.8-2.4-2.8-2.4-.3-31.3c-.3-33.7 0-35.8 4.7-38.4 4-2.2 90.9-2.2 95.1 0zm-68.6 124.6l2.6 2v30.8c0 26.1-.2 31-1.6 32.9l-1.5 2.2h-45.6c-45.5 0-45.7 0-48-2.2l-2.3-2.1v-60.8l2.5-2.4 2.4-2.5h44.4c43.4 0 44.5 0 47.1 2.1z"/><path d="M212.2 278.3c-2.2 2.3-2.2 3-2.2 32.8v30.6l2.3 2.1c2.3 2.2 2.5 2.2 48 2.2h45.6l1.5-2.2c1.4-1.9 1.6-6.8 1.6-32.8v-30.7l-2.3-2.1c-2.3-2.1-2.6-2.2-47.3-2.2h-45.1l-2.1 2.3zm70.5 43.7c11.1 8 20.3 14.8 20.3 15.2 0 .4-1 1.9-2.3 3.3l-2.3 2.7-19.6-14.1c-10.8-7.8-19.9-14.1-20.2-14.1-.3 0-9.4 6.4-20.3 14.1l-19.7 14.1-2.3-2.8c-1.3-1.6-2.3-3.1-2.2-3.4 0-.3 9.3-7.2 20.7-15.3 18.5-13.2 21.1-14.7 24.2-14.4 2.6.2 8.5 3.9 23.7 14.7zM348.2 278.3c-2 2.2-2.1 3.2-2.1 32.7-.1 29.8 0 30.5 2.1 32.7l2.1 2.3h91.6l1.5-2.2c1.4-1.9 1.6-6.8 1.6-32.8v-30.7l-2.3-2.1c-2.4-2.2-2.4-2.2-47.4-2.2l-45.1.1-2 2.2zm70.5 43.7c11.1 8 20.3 14.8 20.3 15.2 0 .4-1 1.9-2.3 3.3l-2.3 2.7-19.6-14.1c-10.8-7.8-19.9-14.1-20.2-14.1-.3 0-9.4 6.4-20.3 14.1l-19.7 14.1-2.3-2.8c-1.3-1.6-2.3-3.1-2.2-3.4 0-.3 9.3-7.2 20.7-15.3 18.5-13.2 21.1-14.7 24.2-14.4 2.6.2 8.5 3.9 23.7 14.7zM283.6 402.6c-1 1.4-1.4 2.9-1 3.3 4.8 4.3 42.6 30.1 44 30.1 1.5 0 39.6-26.1 43.7-30 1.1-1-2.1-6-3.8-6-.8 0-9.5 5.9-19.5 13.1-10 7.2-18.8 13.3-19.6 13.6-.8.3-9.6-5.3-20.4-13.1-10.5-7.5-19.6-13.6-20.3-13.6-.7 0-2 1.2-3.1 2.6zM563 83.4c-4.1 1.5-4.3 2.8-1.7 14.8 1.9 8.7 2.2 23.6.6 32.4-3.8 21.9-17.9 45.8-33.9 57.7-3.6 2.6-7.8 5.8-9.5 7.1l-3 2.3 2.2 4.7c2.3 4.6 2.3 4.6 5 3.2 5.4-2.8 15.7-10.9 22.3-17.7 12.5-12.8 20.9-27.9 25.7-46.3 2.3-8.7 2.7-12.2 2.7-25.1.1-14.5-1.7-27.4-4.5-32.8-1.1-2-1.2-2-5.9-.3zM119.9 97.7c-2 4.9-2.3 24.9-.5 33.2 2.1 9.9 7.6 20.6 14.4 28.2 5.7 6.3 14.6 13.9 16.3 13.9.5 0 2.1-1.9 3.5-4.2l2.7-4.2-3.9-3.1c-11.9-9.2-20.1-22.3-23.1-37-1.3-6.5-1.4-9.3-.5-15 .6-3.9 1.4-7.8 1.7-8.7.7-1.7-2.1-3.7-7.2-5.2-1.9-.6-2.5-.2-3.4 2.1zM528.1 97c-3.9 1.8-4.3 2.3-3.7 4.8 1.7 7.3 1.8 19.8.1 26.1-3.4 13.1-13 27.5-22.1 33.1-4 2.5-4.1 3.6-1.4 9.1 2 3.8 2.1 3.9 4.8 2.5 5.1-2.7 15.1-12.7 20.1-20.1 9.9-14.9 13.3-35.1 8.9-53.3-.6-2.3-1.3-4.2-1.7-4.2-.3 0-2.6.9-5 2z"/></svg>